<svg
    xmlns="http://www.w3.org/2000/svg"
    viewBox="0 0 210 297"
    id="vector">
    <path
        id="path_1"
        d="M -68.943 168.019 C -53.32 147.86 -37.697 127.702 -22.956 127.324 C -8.214 126.946 5.645 146.349 14.842 159.956 C 24.04 173.563 28.575 181.374 37.773 168.649 C 46.97 155.923 60.829 122.663 72.798 127.451 C 84.768 132.239 94.847 175.074 108.328 172.554 C 121.809 170.034 138.692 122.159 155.827 121.907 C 172.962 121.655 190.349 169.026 206.476 174.318 C 222.603 179.61 237.469 142.822 249.439 130.096 C 261.409 117.371 270.48 128.71 274.89 134.128 C 279.299 139.545 279.047 139.041 278.795 138.537"
        fill="none"
        stroke="#0000f2"
        stroke-width="0.264583"
        stroke-dasharray="0,511.28225242967943"
        stroke-dashoffset="511.28225242967943"/>
    <path
        id="path_2"
        d="M 25.137 172.435 C 23.952 171.438 19.249 165.232 14.685 158.644 C 4.524 143.977 -6.33 132.542 -13.268 129.195 C -26.6 122.763 -39.909 130.403 -60.474 156.293 C -64.354 161.178 -67.652 165.176 -67.802 165.176 C -67.952 165.176 -68.075 133.879 -68.075 95.628 L -68.075 26.08 L 278.151 26.08 L 278.148 81.454 L 278.145 136.827 L 273.978 132.157 C 267.497 124.892 262.919 122.756 257.154 124.309 C 251.99 125.699 247.691 130.445 237.005 146.556 C 225.718 163.572 220.063 170.298 214.973 172.762 C 206.166 177.026 200.224 172.298 183.207 147.489 C 170.51 128.979 162.521 121.298 156.016 121.347 C 149.303 121.397 141.638 128.875 129.613 147.103 C 113.82 171.044 109.813 174.586 103.166 170.478 C 99.84 168.422 95.749 162.34 88.565 148.769 C 81.656 135.718 78.88 131.425 75.522 128.599 C 72.273 125.865 68.411 125.939 64.445 128.811 C 59.234 132.586 55.614 137.696 42.972 159.118 C 34.319 173.779 30.301 176.78 25.137 172.435 Z"
        fill="#0000ff"
        stroke-width="1"/>
    <path
        id="path_3"
        d="M 27.05 173.204 C 26.079 172.726 23.011 169.312 20.232 165.617 C 17.452 161.923 14.731 158.616 14.184 158.27 C 13.637 157.923 13.466 157.634 13.804 157.628 C 14.61 157.612 9.721 150.812 8.904 150.812 C 8.559 150.812 8.276 150.349 8.276 149.783 C 8.276 148.352 -7.304 132.464 -11 130.125 C -14.71 127.777 -17.235 127.147 -23.096 127.106 C -26.769 127.08 -28.617 127.561 -32.812 129.636 C -35.662 131.045 -38.165 132.645 -38.374 133.19 C -38.583 133.735 -39.174 134.182 -39.688 134.182 C -41.03 134.182 -55.46 149.253 -61.666 157.136 L -66.941 163.838 L -67.403 138.993 C -67.657 125.329 -67.912 94.333 -67.97 70.115 L -68.075 26.08 L 278.151 26.08 L 278.151 136.03 L 273.293 131.155 C 267.573 125.415 264.5 123.598 260.513 123.598 C 254.381 123.598 249.134 128.179 240.187 141.339 C 225.525 162.91 220.128 169.571 215.334 172.017 C 211.936 173.75 207.834 173.915 204.975 172.433 C 201.347 170.552 193.97 162.057 185.218 149.679 C 175.575 136.041 176.564 137.287 169.208 129.507 C 162.75 122.677 159.554 120.954 154.418 121.532 C 152.441 121.755 150.698 122.311 150.546 122.768 C 150.394 123.225 149.817 123.598 149.264 123.598 C 147.822 123.598 137.529 134.895 132.993 141.457 C 130.873 144.524 129.329 147.033 129.561 147.033 C 129.794 147.033 129.389 147.658 128.662 148.423 C 127.934 149.188 125.128 153.015 122.425 156.928 C 119.723 160.84 115.912 165.658 113.957 167.632 C 111.01 170.609 109.931 171.223 107.648 171.223 C 106.102 171.223 103.959 170.557 102.763 169.706 C 100.366 167.999 95.591 160.964 90.708 151.946 C 88.907 148.62 87.14 145.785 86.782 145.645 C 86.423 145.506 86.322 145.081 86.557 144.7 C 86.792 144.32 86.624 144.009 86.184 144.009 C 85.744 144.009 85.445 143.754 85.52 143.442 C 85.734 142.55 82.906 137.205 82.22 137.205 C 81.881 137.205 81.604 136.723 81.604 136.134 C 81.604 135.545 81.349 134.95 81.037 134.812 C 80.725 134.673 79.909 133.539 79.223 132.292 C 77.485 129.128 73.589 126.622 70.408 126.622 C 67.06 126.622 62.041 129.525 59.397 132.992 C 58.279 134.457 57.367 135.827 57.37 136.035 C 57.373 136.243 56.618 137.235 55.693 138.239 C 54.768 139.243 50.283 146.23 45.726 153.767 C 34.866 171.728 31.394 175.342 27.05 173.204 Z"
        fill="#0000ff"
        stroke-width="1"/>
    <path
        id="path_4"
        d="M 27.053 172.712 C 25.742 171.947 16.083 160.118 12.812 155.271 C 6.304 145.627 -7.826 131.134 -13.268 128.52 C -15.455 127.47 -17.966 127.061 -22.34 127.044 C -27.697 127.024 -28.905 127.295 -32.923 129.416 C -40.179 133.247 -52.8 145.304 -62.528 157.699 L -66.185 162.358 L -66.692 150.727 C -66.97 144.329 -67.316 113.667 -67.46 82.588 L -67.721 26.08 L 278.151 26.08 L 278.151 135.264 L 274.183 131.392 C 267.996 125.355 264.939 123.598 260.621 123.598 C 258.58 123.598 255.991 124.082 254.868 124.674 C 251.114 126.652 245.101 133.694 235.776 147.033 C 220.235 169.263 216.676 172.735 209.438 172.735 L 205.208 172.735 L 199.535 166.84 C 196.415 163.598 189.951 155.523 185.169 148.897 C 176.425 136.778 166.434 125.491 162.152 122.892 C 158.413 120.624 153.035 120.934 148.781 123.664 C 146.822 124.921 144.38 127.036 143.353 128.364 C 142.327 129.693 139.975 132.412 138.128 134.408 C 136.28 136.403 133.607 139.907 132.188 142.195 C 128.77 147.702 119.265 160.793 115.145 165.666 C 109.46 172.392 104.848 172.41 99.821 165.724 C 96.814 161.723 89.462 149.589 85.114 141.449 C 83.807 139.001 82.269 136.142 81.695 135.095 C 81.122 134.047 79.194 131.732 77.411 129.949 C 74.432 126.97 73.86 126.71 70.341 126.737 C 63.286 126.792 59.734 130.605 45.837 153.039 C 38.335 165.151 31.606 173.515 29.4 173.468 C 28.8 173.455 27.744 173.115 27.053 172.712 Z"
        fill="#0000ff"
        stroke-width="1"/>
    <path
        id="path_5"
        d="M 22.06 166.499 C 19.206 163.068 14.401 156.944 11.384 152.888 C 4.788 144.024 -6.894 132.078 -11.751 129.231 C -15.868 126.819 -23.477 125.943 -28.505 127.304 C -35.629 129.231 -47.579 139.316 -59.122 153.14 L -65.429 160.695 L -65.923 157.077 C -66.195 155.087 -66.676 124.798 -66.992 89.769 L -67.567 26.08 L 278.151 26.08 L 278.151 134.366 L 273.291 130.099 C 266.992 124.569 265.034 123.609 260.049 123.603 C 253.084 123.595 250.002 126.624 233.518 149.679 C 220.243 168.245 215.247 172.715 207.755 172.731 C 204.989 172.737 197.889 165.063 185.02 148.16 C 174.106 133.823 166.627 125.471 162.394 122.89 C 158.75 120.669 153.317 120.804 149.197 123.218 C 144.843 125.769 136.069 135.79 128.618 146.721 C 116.962 163.819 111.011 170.473 107.383 170.464 C 103.095 170.454 98.171 164.033 86.668 143.448 C 79.289 130.242 75.836 126.622 70.622 126.622 C 68.721 126.622 66.229 127.106 65.085 127.698 C 61.89 129.35 57.12 134.925 51.608 143.448 C 35.633 168.15 32.1 172.735 29.039 172.735 C 27.723 172.735 25.881 171.089 22.06 166.499 Z"
        fill="#0000ff"
        stroke-width="1"/>
    <path
        id="path_7"
        d="M 25.55 169.144 C 24.072 167.585 19.164 161.717 14.643 156.104 C 5.258 144.449 -8.23 130.503 -12.134 128.415 C -14.238 127.29 -16.408 127 -22.718 127 C -30.558 127 -30.706 127.033 -34.813 129.722 C -40.362 133.355 -50.571 142.777 -58.344 151.439 L -64.673 158.491 L -65.139 148.793 C -65.395 143.459 -65.823 120.556 -66.091 97.896 C -66.359 75.236 -66.777 49.808 -67.021 41.388 L -67.464 26.08 L 278.151 26.08 L 278.059 66.335 C 278.009 88.475 277.753 112.422 277.492 119.551 L 277.017 132.513 L 271.406 127.982 L 265.794 123.45 L 259.905 123.717 C 254.084 123.982 253.977 124.024 250.523 127.382 C 248.602 129.251 241.472 138.111 234.679 147.071 C 219.237 167.441 214.444 171.979 208.378 171.979 C 205.923 171.979 198.61 164.239 185.166 147.411 C 173.335 132.601 165.531 124.047 162.339 122.39 C 159.206 120.764 152.028 121.032 148.981 122.89 C 145.17 125.213 138.934 132.01 131.686 141.741 C 116.779 161.754 114.712 164.383 111.833 166.984 C 110.172 168.484 108.067 169.711 107.153 169.711 C 104.287 169.711 99 163.003 89.732 147.605 C 84.848 139.491 79.45 131.45 77.737 129.737 C 74.824 126.824 74.346 126.622 70.364 126.625 C 62.903 126.63 61.425 128.099 46.159 150.686 C 36.891 164.399 30.836 171.979 29.148 171.979 C 28.648 171.979 27.028 170.703 25.55 169.144 Z"
        fill="#0000ff"
        stroke-width="1"/>
    <path
        id="path_8"
        d="M 25.238 168.058 C 23.132 165.849 17.306 159.109 12.289 153.08 C 0.457 138.862 -10.175 128.539 -14.114 127.445 C -15.728 126.997 -19.816 126.629 -23.198 126.626 C -28.472 126.622 -29.899 126.918 -33.21 128.701 C -38.421 131.506 -48.209 140.101 -56.819 149.431 L -63.911 157.117 L -64.412 154.154 C -64.687 152.524 -65.279 126.528 -65.726 96.384 C -66.174 66.24 -66.738 38.091 -66.98 33.829 L -67.42 26.08 L 278.289 26.08 L 277.824 72.004 C 277.568 97.263 277.167 121.052 276.933 124.87 L 276.506 131.811 L 271.256 127.522 L 266.006 123.233 L 260.928 123.452 C 252.141 123.83 252.698 123.34 234.906 146.323 C 219.59 166.106 215.529 170.199 209.894 171.527 C 208.058 171.959 207.182 171.456 203.17 167.655 C 200.634 165.252 193.541 157.162 187.409 149.679 C 166.386 124.02 164.28 121.981 158.289 121.484 C 151.1 120.888 149.249 121.645 143.3 127.618 C 140.324 130.604 132.746 139.851 126.459 148.167 C 115.212 163.042 110.595 168.246 107.762 169.244 C 105.012 170.213 99.347 162.89 86.139 141.292 C 83.437 136.873 79.841 131.764 78.149 129.94 C 75.089 126.64 75.045 126.622 69.871 126.622 L 64.669 126.622 L 60.474 130.992 C 58.167 133.395 51.857 141.803 46.452 149.675 C 41.047 157.547 34.924 165.808 32.845 168.032 L 29.065 172.075 Z"
        fill="#0020ff"
        stroke-width="1"/>
</svg>
