<?xml version="1.0" standalone="no"?><svg xmlns="http://www.w3.org/2000/svg" viewBox="0 0 1440 320"><path fill="#0099ff" fill-opacity="1" d="M0,96L34.3,117.3C68.6,139,137,181,206,181.3C274.3,181,343,139,411,138.7C480,139,549,181,617,181.3C685.7,181,754,139,823,122.7C891.4,107,960,117,1029,144C1097.1,171,1166,213,1234,208C1302.9,203,1371,149,1406,122.7L1440,96L1440,320L1405.7,320C1371.4,320,1303,320,1234,320C1165.7,320,1097,320,1029,320C960,320,891,320,823,320C754.3,320,686,320,617,320C548.6,320,480,320,411,320C342.9,320,274,320,206,320C137.1,320,69,320,34,320L0,320Z"></path></svg>